<svg xmlns="http://www.w3.org/2000/svg" xmlns:xlink="http://www.w3.org/1999/xlink" width="1080" zoomAndPan="magnify" viewBox="0 0 810 809.999993" height="1080" preserveAspectRatio="xMidYMid meet" version="1.0"><defs><clipPath id="ac71f24b5b"><path d="M 413 73 L 648 73 L 648 373 L 413 373 Z M 413 73 " clip-rule="nonzero"/></clipPath><clipPath id="227fe42681"><path d="M 437 0 L 648 0 L 648 179 L 437 179 Z M 437 0 " clip-rule="nonzero"/></clipPath></defs><path fill="#121827" d="M 0 634.851562 L 0 397.542969 L 254.472656 116.933594 C 286.449219 83.175781 338.132812 83.175781 369.90625 116.933594 C 401.882812 150.695312 401.882812 205.261719 369.90625 238.808594 Z M 0 634.851562 " fill-opacity="1" fill-rule="nonzero"/><path fill="#8b93a6" d="M 1.699219 809.8125 L 1.703125 673.378906 L 270.558594 376.816406 C 288.859375 357.496094 318.625 357.496094 336.925781 376.816406 C 355.226562 396.136719 355.226562 427.5625 336.925781 446.882812 Z M 1.699219 809.8125 " fill-opacity="1" fill-rule="nonzero"/><path fill="#121827" d="M 368.34375 295.660156 C 366.675781 293.894531 366.675781 291.132812 368.34375 289.367188 L 637.417969 4.691406 C 639.089844 2.925781 641.699219 2.925781 643.367188 4.691406 C 645.039062 6.460938 645.039062 9.21875 643.367188 10.988281 L 374.292969 295.660156 C 372.625 297.425781 370.015625 297.425781 368.34375 295.660156 Z M 368.34375 295.660156 " fill-opacity="1" fill-rule="nonzero"/><g clip-path="url(#ac71f24b5b)"><path stroke-linecap="round" transform="matrix(1.670103, 0, 0, 1.670103, 0.0000035, 0.00002)" fill="none" stroke-linejoin="miter" d="M 281.576485 189.011073 L 386.339395 78.27922 " stroke="#10159d" stroke-width="2.408" stroke-opacity="1" stroke-miterlimit="10"/></g><g clip-path="url(#227fe42681)"><path stroke-linecap="round" transform="matrix(1.670103, 0, 0, 1.670103, 0.0000035, 0.00002)" fill="none" stroke-linejoin="miter" d="M 296.024041 72.686844 L 362.975846 1.999771 " stroke="#10159d" stroke-width="2.408" stroke-opacity="1" stroke-miterlimit="10"/></g></svg>